<?xml version="1.0" encoding="UTF-8"?>
<svg id="Layer_1" data-name="Layer 1" xmlns="http://www.w3.org/2000/svg" viewBox="0 0 595.28 594.86">
  <defs>
    <style>
      .cls-1 {
        fill: #8abfe5;
      }

      .cls-2 {
        fill: #2f5233;
      }
    </style>
  </defs>
  <circle class="cls-1" cx="297.64" cy="297.43" r="151.11"/>
  <path class="cls-2" d="M255.43,234.99c.07.48.2,1.37.79,2.24.57.84,1.09.96,1.72,1.58.43.43.92,1.1,1.45,3.3.53,2.19.48,3.39.79,6.86.32,3.59.54,4.19,1.06,4.75,1.11,1.19,2.22.64,3.17,1.85.76.96.27,1.59.79,4.62.37,2.18.6,3.4,1.58,4.09.99.7,1.72.13,2.37.79.89.89-.03,2.31,0,5.01.01,1.16.05,4.31,1.85,5.54,1.29.88,2.14-.13,4.09.53,2.34.79,4.1,3.25,4.62,5.54.68,3.03-1.06,4.71,0,5.81.83.86,2.21.15,6.2,0,3.13-.12,3.05.29,4.75.13,5.64-.54,8.92-5.26,10.03-4.35.43.35-.13,1.01,0,3.43.11,2.13.6,2.57.4,3.69-.3,1.71-1.75,2.61-2.91,3.56-2.29,1.9-1.82,2.7-5.28,7.79-2.36,3.46-4.35,6.39-7.65,9.24-2.83,2.44-3.28,1.94-6.97,5.01-2.48,2.07-3.96,3.7-6.23,6.2-5.31,5.86-5.49,7.47-5.41,8.44.11,1.43.74,1.14,1.72,3.96,1.1,3.16.54,4.21,1.58,7.65.6,1.97.79,1.65,1.72,4.22,1.48,4.08,2.22,6.12,1.85,7.79-.83,3.78-4.94,3.32-6.99,8.44-.73,1.81-.67,3.02-1.85,3.69-1.73.99-3.69-.55-5.41.66-1.05.74-1.3,2.01-1.32,2.11-.37,2.01,1.52,3.1,3.43,7.26,1.22,2.65.92,3.23.79,3.43-.61.94-2.15.32-4.88,1.32-1.24.45-2.74,1-2.9,1.98-.23,1.38,2.43,2.22,2.24,3.69-.11.86-1.05.9-2.9,2.51-.85.73-2.23,1.93-3.03,3.69-.97,2.11-.07,2.76-.92,3.96-1.6,2.26-6.08,1.85-7.52,1.72-2.86-.26-2.97-1.06-4.88-.79-2.61.37-3.35,1.99-5.15,1.58-1.64-.37-2.58-2.05-2.9-2.64-1.02-1.83-.47-2.94-1.06-4.49-.86-2.26-3.12-2.72-5.41-4.09-3.92-2.35-5.72-6.07-8.97-12.8-1.82-3.76-1.92-5.13-4.09-8.44-1.96-2.99-2.41-2.71-3.69-5.01-.73-1.32-3.37-6.07-2.24-11.22.49-2.23,1.13-2.02,1.98-5.15.15-.57,1.07-4.04.79-7.26-.28-3.23-1.69-5.21-4.88-9.9-3.23-4.74-9.91-14.64-9.1-15.31.26-.22,1.09.74,1.85.4.74-.33.71-1.59.92-3.96.39-4.31.87-4.33.53-5.81-.16-.69-.67-2.93-2.51-4.09-2.2-1.39-3.81.36-5.81-.92-1.75-1.12-1.01-2.77-3.43-5.44-1.14-1.25-1.97-2.17-3.17-2.22-1.94-.07-2.41,2.23-5.28,2.9-.74.17-.33-.07-3.56,0-2.55.05-3.29.21-4.88,0-1.38-.19-2.08-.28-2.77-.69-1.42-.83-1.6-2.05-3.03-4.86-1.66-3.26-1.99-2.75-2.51-4.35-.73-2.26-.13-3.45,0-6.86.14-3.75-.53-3.53-.53-7.26,0-4.78,1.12-8.58,1.72-10.56,1.27-4.21,1.84-3.65,2.51-6.86.75-3.57.24-5.2,1.58-8.18.25-.55.44-.89,2.51-3.83,3.51-5,5.28-7.51,5.94-8.05,3.37-2.77,5.31-1.75,7.39-4.62,1.32-1.83.62-2.36,2.24-4.75.29-.43.8-1.12,5.01-4.88,3.01-2.68,3.41-2.92,4.09-3.03,1.95-.33,2.5,1.01,5.15,1.06.92.01,1.54-.14,4.75-1.21,4.71-1.58,4.52-1.64,5.67-1.96.67-.18,8.2-2.21,9.9.53.73,1.17.27,3.04-.26,4.09-.75,1.48-1.74,1.48-2.11,2.77-.39,1.33.12,3.23,1.32,3.96,1.83,1.11,4.52-.96,5.28,0,.44.57-.44,1.35,0,2.38.38.89,1.31.94,3.43,1.85,2.85,1.22,3.13,1.98,3.96,1.72,1.3-.42.81-2.31,2.51-4.09,1.22-1.27,3.24-2.16,5.01-1.85,2.12.38,2.05,2.15,4.75,4.09,3.23,2.32,7.22,2.56,8.58,2.64,3.31.2,5.62-.57,6.2.53.37.69-.39,1.29-.13,3.17Z"/>
  <path class="cls-2" d="M238.33,205.13c-.4.46-.92,1.17-1.32,2.12-1.35,3.16-.2,6.11,0,6.61,1.05,2.57,3.32,4.53,4.03,4.16.47-.25,0-1.4.79-2.05.65-.54,1.38-.09,1.85-.6.48-.51.04-1.3,0-2.51-.04-1.41.48-2.82,1.12-3.64,1.54-1.96,4.68-1.72,5.62-1.65,3.49.27,6.17,2.47,6.02,2.84-.1.24-1.39-.33-4.03-.33-1.46,0-2.2,0-2.78.4-1.77,1.2-1.95,5.21-.2,6.74.74.64,1.92.71,4.3.84,2.02.11,2.45-.15,3.9.17,1.87.41,1.85.99,2.97.98,1.9-.02,2.27-1.67,4.3-1.85,1.18-.11,2.82.3,3.31,1.32.44.92-.34,1.72-1.92,4.96-1.85,3.8-1.41,4-2.31,4.76-1.18,1-3.5,1.98-5.62,2.45-.61.13-1.22.23-1.52.73-.65,1.08.77,3.04,1.06,3.44,1.44,1.98,2.67,1.93,4.23,3.7.89,1.01,1.03,1.64,1.92,3.5,2.69,5.62,4.01,5.27,5.29,8.99,1.1,3.19.32,4.01,1.79,6.41.84,1.37,1.33,1.51,3.31,3.64,2.81,3.03,4.21,4.55,4.76,6.21,1.22,3.72-1,6.08.93,8.46.53.65,1.18,1.07,1.72,2.25.77,1.67.28,2.6.93,3.04.95.64,2.2-1.21,5.09-1.45,1.7-.14,2,.43,3.64.13.58-.1,1.47-.34,3.37-1.59,3.83-2.5,3.7-3.81,5.82-4.36,1.98-.52,2.93.4,4.1-.53,1.12-.89.49-1.91,1.52-3.11,1.38-1.61,3.21-.58,6.08-2.12.96-.51,1.76-1.31,3.37-2.91,2.81-2.79,2.22-3.1,4.16-4.69,1.41-1.16,2.58-1.69,3.77-3.44.55-.81.83-1.23.79-1.78-.1-1.43-2.09-1.77-5.29-3.9-3.18-2.12-3.32-3.18-4.89-3.24-1.8-.07-2.1,1.31-4.83,2.25-2.99,1.02-6.54.7-7.14-.66-.35-.79.54-1.39.26-2.51-.35-1.42-2.14-1.93-3.5-2.58-3.78-1.81-7.08-6.04-6.35-8.26.52-1.57,3.24-2.7,5.22-2.12,2.32.69,2.26,3.33,6.08,6.02.96.68,1.61,1.13,2.64,1.45,3.45,1.08,5.26-1.16,7.67,0,1.77.85,1.11,2.21,3.37,3.64,1.44.91,2.86,1.09,5.16,1.39,1.69.22,2.93.21,4.56.2,3.52-.03,5.31-.05,7.6-.66,2.54-.68,2.95-1.36,4.03-.99,1.56.53,1.48,2.21,3.37,4.43.71.84,1.01.93,4.5,3.31,3.38,2.3,5.07,3.45,6.35,4.5,1.94,1.59,3.63,2.97,5.09,5.09,1.86,2.7,1.78,4.33,3.14,8.49.98,3,2.19,5.39,4.61,10.16,3.76,7.41,5.64,11.12,7.38,10.88,2.21-.31,3.09-6.61,3.32-8.3.98-7.09-1.5-8.64,0-13.1,1.51-4.5,4.21-3.43,7.2-9.41,2.25-4.5,2.49-8.67,4.43-8.86,1.2-.12,1.68,1.43,3.51,1.48,2.02.05,2.52-1.81,4.06-1.85,2.61-.06,2.78,5.31,7.38,8.67,3.59,2.62,5.61.9,7.93,3.51,2.81,3.15.63,6.52,3.51,9.23,2.13,2.01,3.84.64,7.01,2.77,3.91,2.63,4.19,6.65,5.35,6.46,1.43-.23,3.06-6.66.92-12.73-2.53-7.21-8.33-8.1-8.12-13.1.1-2.45,1.61-4.4,4.61-8.3,2.82-3.66,4.36-4.37,5.54-5.9,6.69-8.72-8.21-31.1-10.24-34.15-5.13-7.71-10.12-12.71-14.91-17.52-4.19-4.21-11.21-11.18-21.92-18.32-8.68-5.79-21.16-14.1-34.31-15.75-4.5-.56-7.4-.14-13.03-1.83-5.54-1.67-8.83-3.91-11.66-2.29-2.06,1.18-1.5,3.05-3.89,5.03-2.4,1.99-5.12,1.87-9.14,2.06-5.09.24-10.2.48-14.86,1.83-8.06,2.34-10.9,6.9-13.95,5.26-1.89-1.02-2.88-3.89-2.06-5.26,1.27-2.1,6.75-.59,6.86-1.14.1-.52-4.47-3.06-10.52-3.2-8.77-.2-18.2,4.74-21.72,7.54-.68.54-2.13,1.79-4.39,2.33-2.12.51-3.13.12-4.58.32-5.12.7-8.11,8.32-7.73,8.6.29.22,2.76-4,5.88-3.68.29.03,1.2.12,1.54.74.81,1.46-2.41,4.39-2.01,4.81.26.28,1.61-.99,4.14-2.17,2.39-1.11,3.03-.88,4.66-1.9,1.32-.82,1.76-1.59,2.92-2.92,0,0,2.44-2.79,6.01-5.22,3.98-2.7,8.76-3.82,9.09-3.16.53,1.06-10.4,6.93-9.72,8.38.59,1.25,9.13-2.19,9.64-1.03.29.66-1.95,3-4.43,3.16-1.16.08-1.72-.37-2.53.08-1.27.7-.8,2.33-1.9,2.92-1.28.69-2.6-1.16-4.11-.55-1.27.51-.9,2.04-2.37,3.32-.92.79-1.56.64-4.43,1.19-4.73.91-5.4,1.8-6.72,1.11-1.37-.72-2.13-2.48-2.13-3.87,0-1.69,1.12-2.81.87-3-.27-.21-1.75,1-2.92,2.53-1.26,1.64-1,2.11-1.9,2.84-1.26,1.03-2.34.56-4.5,1.19-1.09.31-1.14.52-4.19,2.29-2.21,1.28-4.35,2.52-7.03,3.71-2.22.99-3.34,1.49-4.52,1.7-2.39.44-4.31.09-4.6.89-.16.42.32.67.62,1.58.48,1.47-.11,2.87-.67,4.19-.6,1.42-1.19,2.82-2.56,3.43-.45.2-.87.27-2.75.14-4.1-.28-4.82-.79-5.97-.27-.84.37-.8.79-2.4,2.95-1.96,2.64-2.36,2.47-4.33,5.08-2.94,3.91-2.68,5.14-2.54,5.57.38,1.17,1.52,1.72,1.65,1.77,1.38.63,2.85-.03,4.46-.76,1.39-.63,2.31-1.31,3.23-1.99,1.09-.82,2.71-2.04,4.26-4.05,1.33-1.72,1.06-2.02,1.92-2.61,1.8-1.25,3.24-.14,4.6-1.3,1.38-1.19.61-2.95,1.85-3.64,1.11-.62,2.03.64,4.05.76,3.43.2,5.44-3.12,6.52-2.4.99.66-.99,3.23.21,5.84,1.13,2.46,3.79,2.11,4.78,4.67.8,2.06-.15,4.3,0,4.33.21.04.76-4.57,2.15-4.74,1.07-.13,2.07,2.43,2.4,2.27.25-.12.03-1.68-.89-3.09-1.22-1.87-2.58-1.77-3.67-3.09-1.78-2.17-1.39-6.38,0-7,1.05-.48,3.32.81,8.53,7.86Z"/>
</svg>