<?xml version="1.0" encoding="UTF-8"?>
<svg id="Layer_1" data-name="Layer 1" xmlns="http://www.w3.org/2000/svg" viewBox="0 0 595.28 594.86">
  <defs>
    <style>
      .cls-1 {
        fill: #8abfe5;
      }

      .cls-2 {
        fill: #9b8e71;
      }

      .cls-3 {
        fill: #2f5233;
      }
    </style>
  </defs>
  <g>
    <circle class="cls-1" cx="293.47" cy="160.71" r="67.53"/>
    <path class="cls-3" d="M274.61,132.8c.03.21.09.61.35,1,.26.38.49.43.77.71.19.19.41.49.65,1.47.24.98.21,1.51.35,3.07.14,1.6.24,1.87.47,2.12.5.53.99.29,1.42.83.34.43.12.71.35,2.06.17.97.27,1.52.71,1.83.44.31.77.06,1.06.35.4.4-.01,1.03,0,2.24,0,.52.02,1.93.83,2.48.58.39.96-.06,1.83.24,1.04.35,1.83,1.45,2.06,2.48.3,1.35-.47,2.1,0,2.59.37.38.99.07,2.77,0,1.4-.05,1.36.13,2.12.06,2.52-.24,3.99-2.35,4.48-1.95.19.16-.06.45,0,1.53.05.95.27,1.15.18,1.65-.13.76-.78,1.17-1.3,1.59-1.02.85-.81,1.21-2.36,3.48-1.05,1.55-1.95,2.86-3.42,4.13-1.27,1.09-1.47.87-3.11,2.24-1.11.92-1.77,1.66-2.78,2.77-2.37,2.62-2.45,3.34-2.42,3.77.05.64.33.51.77,1.77.49,1.41.24,1.88.71,3.42.27.88.35.74.77,1.89.66,1.82.99,2.73.83,3.48-.37,1.69-2.21,1.48-3.13,3.77-.32.81-.3,1.35-.83,1.65-.77.44-1.65-.25-2.42.29-.47.33-.58.9-.59.94-.17.9.68,1.38,1.53,3.24.54,1.18.41,1.44.35,1.53-.27.42-.96.15-2.18.59-.55.2-1.22.44-1.3.88-.1.62,1.09.99,1,1.65-.05.38-.47.4-1.3,1.12-.38.33-1,.86-1.36,1.65-.43.94-.03,1.23-.41,1.77-.72,1.01-2.72.83-3.36.77-1.28-.12-1.33-.47-2.18-.35-1.17.16-1.5.89-2.3.71-.73-.16-1.15-.92-1.3-1.18-.46-.82-.21-1.31-.47-2-.39-1.01-1.39-1.21-2.42-1.83-1.75-1.05-2.56-2.71-4.01-5.72-.81-1.68-.86-2.29-1.83-3.77-.87-1.34-1.08-1.21-1.65-2.24-.33-.59-1.51-2.71-1-5.01.22-.99.5-.9.88-2.3.07-.25.48-1.81.35-3.24-.13-1.44-.76-2.33-2.18-4.42-1.44-2.12-4.43-6.54-4.07-6.84.12-.1.49.33.83.18.33-.15.32-.71.41-1.77.17-1.93.39-1.93.24-2.59-.07-.31-.3-1.31-1.12-1.83-.98-.62-1.7.16-2.59-.41-.78-.5-.45-1.24-1.53-2.43-.51-.56-.88-.97-1.42-.99-.86-.03-1.08,1-2.36,1.3-.33.08-.15-.03-1.59,0-1.14.02-1.47.1-2.18,0-.62-.08-.93-.12-1.24-.31-.63-.37-.72-.92-1.36-2.17-.74-1.46-.89-1.23-1.12-1.95-.32-1.01-.06-1.54,0-3.07.06-1.68-.24-1.58-.24-3.24,0-2.14.5-3.84.77-4.72.57-1.88.82-1.63,1.12-3.07.33-1.6.11-2.32.71-3.66.11-.25.2-.4,1.12-1.71,1.57-2.23,2.36-3.35,2.65-3.6,1.51-1.24,2.37-.78,3.3-2.06.59-.82.28-1.05,1-2.12.13-.19.36-.5,2.24-2.18,1.34-1.2,1.53-1.31,1.83-1.36.87-.15,1.12.45,2.3.47.41,0,.69-.06,2.12-.54,2.11-.7,2.02-.73,2.54-.87.3-.08,3.66-.99,4.42.24.33.52.12,1.36-.12,1.83-.34.66-.78.66-.94,1.24-.17.6.05,1.44.59,1.77.82.5,2.02-.43,2.36,0,.2.25-.2.6,0,1.06.17.4.59.42,1.53.83,1.27.55,1.4.89,1.77.77.58-.19.36-1.03,1.12-1.83.54-.57,1.45-.97,2.24-.83.95.17.91.96,2.12,1.83,1.44,1.04,3.23,1.14,3.83,1.18,1.48.09,2.51-.25,2.77.24.16.31-.18.58-.06,1.42Z"/>
    <path class="cls-3" d="M266.96,119.46c-.18.21-.41.52-.59.95-.6,1.41-.09,2.73,0,2.95.47,1.15,1.48,2.03,1.8,1.86.21-.11,0-.62.35-.92.29-.24.62-.04.83-.27.21-.23.02-.58,0-1.12-.02-.63.21-1.26.5-1.62.69-.88,2.09-.77,2.51-.74,1.56.12,2.76,1.11,2.69,1.27-.04.11-.62-.15-1.8-.15-.65,0-.98,0-1.24.18-.79.54-.87,2.33-.09,3.01.33.29.86.32,1.92.37.9.05,1.09-.07,1.74.07.84.18.83.44,1.33.44.85,0,1.01-.75,1.92-.83.53-.05,1.26.13,1.48.59.2.41-.15.77-.86,2.22-.83,1.7-.63,1.79-1.03,2.13-.53.44-1.56.88-2.51,1.09-.27.06-.54.1-.68.32-.29.48.34,1.36.47,1.54.64.89,1.2.86,1.89,1.65.4.45.46.73.86,1.57,1.2,2.51,1.79,2.36,2.36,4.02.49,1.42.14,1.79.8,2.87.37.61.6.67,1.48,1.62,1.26,1.36,1.88,2.03,2.13,2.78.55,1.66-.45,2.72.41,3.78.24.29.53.48.77,1,.34.75.12,1.16.41,1.36.42.29.98-.54,2.27-.65.76-.06.89.19,1.62.06.26-.05.66-.15,1.51-.71,1.71-1.12,1.65-1.7,2.6-1.95.88-.23,1.31.18,1.83-.24.5-.4.22-.85.68-1.39.62-.72,1.43-.26,2.72-.95.43-.23.79-.59,1.51-1.3,1.25-1.25.99-1.38,1.86-2.1.63-.52,1.15-.76,1.68-1.54.25-.36.37-.55.35-.8-.04-.64-.93-.79-2.36-1.74-1.42-.95-1.48-1.42-2.19-1.45-.81-.03-.94.59-2.16,1-1.33.46-2.92.31-3.19-.3-.16-.36.24-.62.12-1.12-.16-.63-.96-.86-1.57-1.15-1.69-.81-3.17-2.7-2.84-3.69.23-.7,1.45-1.21,2.33-.95,1.04.31,1.01,1.49,2.72,2.69.43.3.72.51,1.18.65,1.54.48,2.35-.52,3.43,0,.79.38.5.99,1.51,1.62.64.4,1.28.49,2.3.62.76.1,1.31.1,2.04.09,1.57-.01,2.37-.02,3.4-.3,1.13-.3,1.32-.61,1.8-.44.7.24.66.99,1.51,1.98.32.37.45.42,2.01,1.48,1.51,1.03,2.27,1.54,2.84,2.01.87.71,1.62,1.33,2.27,2.27.83,1.21.79,1.93,1.4,3.79.44,1.34.98,2.41,2.06,4.54,1.68,3.31,2.52,4.97,3.3,4.86.99-.14,1.38-2.95,1.48-3.71.44-3.17-.67-3.86,0-5.85.68-2.01,1.88-1.53,3.22-4.21,1-2.01,1.11-3.87,1.98-3.96.54-.05.75.64,1.57.66.9.02,1.13-.81,1.81-.82,1.17-.03,1.24,2.37,3.3,3.88,1.6,1.17,2.51.4,3.55,1.57,1.26,1.41.28,2.91,1.57,4.12.95.9,1.72.28,3.13,1.24,1.75,1.17,1.87,2.97,2.39,2.89.64-.11,1.37-2.98.41-5.69-1.13-3.22-3.72-3.62-3.63-5.85.05-1.09.72-1.97,2.06-3.71,1.26-1.63,1.95-1.95,2.47-2.64,2.99-3.9-3.67-13.9-4.57-15.26-2.29-3.44-4.52-5.68-6.66-7.83-1.87-1.88-5.01-5-9.8-8.19-3.88-2.59-9.46-6.3-15.33-7.04-2.01-.25-3.31-.06-5.82-.82-2.48-.74-3.94-1.75-5.21-1.02-.92.53-.67,1.36-1.74,2.25-1.07.89-2.29.84-4.09.92-2.27.11-4.56.21-6.64.82-3.6,1.05-4.87,3.08-6.23,2.35-.84-.45-1.29-1.74-.92-2.35.57-.94,3.02-.26,3.06-.51.05-.23-2-1.37-4.7-1.43-3.92-.09-8.13,2.12-9.71,3.37-.3.24-.95.8-1.96,1.04-.95.23-1.4.05-2.05.14-2.29.31-3.62,3.72-3.46,3.84.13.1,1.23-1.79,2.63-1.64.13.01.53.05.69.33.36.65-1.08,1.96-.9,2.15.12.12.72-.44,1.85-.97,1.07-.5,1.35-.39,2.08-.85.59-.37.79-.71,1.31-1.31,0,0,1.09-1.25,2.68-2.33,1.78-1.21,3.91-1.71,4.06-1.41.24.47-4.65,3.1-4.34,3.74.26.56,4.08-.98,4.31-.46.13.3-.87,1.34-1.98,1.41-.52.03-.77-.16-1.13.04-.57.31-.36,1.04-.85,1.31-.57.31-1.16-.52-1.84-.25-.57.23-.4.91-1.06,1.48-.41.35-.7.28-1.98.53-2.12.4-2.41.8-3,.49-.61-.32-.95-1.11-.95-1.73,0-.75.5-1.26.39-1.34-.12-.09-.78.45-1.31,1.13-.56.73-.45.94-.85,1.27-.56.46-1.05.25-2.01.53-.49.14-.51.23-1.87,1.02-.99.57-1.95,1.13-3.14,1.66-.99.44-1.49.66-2.02.76-1.07.2-1.92.04-2.06.4-.07.19.14.3.28.71.21.66-.05,1.28-.3,1.87-.27.64-.53,1.26-1.14,1.53-.2.09-.39.12-1.23.06-1.83-.13-2.15-.35-2.67-.12-.38.17-.36.35-1.07,1.32-.88,1.18-1.05,1.1-1.93,2.27-1.31,1.75-1.2,2.3-1.14,2.49.17.52.68.77.74.79.62.28,1.27-.01,1.99-.34.62-.28,1.03-.58,1.44-.89.49-.37,1.21-.91,1.9-1.81.59-.77.48-.9.86-1.17.81-.56,1.45-.06,2.06-.58.62-.53.27-1.32.83-1.63.5-.28.91.28,1.81.34,1.53.09,2.43-1.4,2.92-1.07.44.29-.44,1.44.09,2.61.51,1.1,1.7.94,2.14,2.09.36.92-.07,1.92,0,1.93.09.02.34-2.04.96-2.12.48-.06.93,1.08,1.07,1.01.11-.05.01-.75-.4-1.38-.55-.83-1.15-.79-1.64-1.38-.8-.97-.62-2.85,0-3.13.47-.21,1.48.36,3.81,3.51Z"/>
  </g>
  <g>
    <path class="cls-2" d="M302.02,262.07c.59-4.2,1.19-8.39,1.78-12.59-7.56-.62-15.12-1.24-22.68-1.85-.92,4.12-1.85,8.24-2.77,12.35,7.89.7,15.78,1.39,23.67,2.09Z"/>
    <path class="cls-2" d="M277.25,264.87c-18.04,79.9-36.08,159.79-54.13,239.69h55.84c7.45-79.18,14.9-158.37,22.36-237.55-8.02-.71-16.04-1.42-24.07-2.14Z"/>
  </g>
  <path class="cls-2" d="M296.72,241.48c-.9.04-1.8.06-2.71.06-44.59.3-81.12-35.73-81.42-80.33h0c-.3-43.69,34.28-79.63,77.62-81.36.9-.04,1.8-.06,2.71-.06,21.6-.15,41.97,8.13,57.35,23.3,15.38,15.17,23.93,35.42,24.08,57.03.3,43.69-34.28,79.63-77.62,81.36ZM219.04,161.17c.28,41.04,33.89,74.2,74.93,73.92.83,0,1.67-.03,2.49-.06,39.88-1.59,71.7-34.66,71.42-74.87-.13-19.88-8-38.51-22.16-52.48-14.15-13.96-32.89-21.57-52.77-21.44-40.98.33-74.19,33.89-73.92,74.93h0Z"/>
</svg>