<?xml version="1.0" encoding="UTF-8"?>
<svg id="Layer_1" data-name="Layer 1" xmlns="http://www.w3.org/2000/svg" viewBox="0 0 595.28 594.86">
  <defs>
    <style>
      .cls-1 {
        fill: #8abfe5;
      }

      .cls-2 {
        fill: #9b8e71;
      }

      .cls-3 {
        fill: #2f5233;
      }
    </style>
  </defs>
  <g>
    <g>
      <circle class="cls-1" cx="242.73" cy="253.61" r="19.31"/>
      <path class="cls-3" d="M237.34,245.63c0,.06.03.18.1.29.07.11.14.12.22.2.05.05.12.14.19.42.07.28.06.43.1.88.04.46.07.54.13.61.14.15.28.08.4.24.1.12.03.2.1.59.05.28.08.43.2.52.13.09.22.02.3.1.11.11,0,.3,0,.64,0,.15,0,.55.24.71.16.11.27-.02.52.07.3.1.52.41.59.71.09.39-.14.6,0,.74.11.11.28.02.79,0,.4-.01.39.04.61.02.72-.07,1.14-.67,1.28-.56.05.04-.02.13,0,.44.01.27.08.33.05.47-.04.22-.22.33-.37.46-.29.24-.23.35-.67.99-.3.44-.56.82-.98,1.18-.36.31-.42.25-.89.64-.32.26-.51.47-.8.79-.68.75-.7.96-.69,1.08.01.18.09.15.22.51.14.4.07.54.2.98.08.25.1.21.22.54.19.52.28.78.24.99-.11.48-.63.42-.89,1.08-.09.23-.09.39-.24.47-.22.13-.47-.07-.69.08-.13.09-.17.26-.17.27-.05.26.19.4.44.93.16.34.12.41.1.44-.08.12-.27.04-.62.17-.16.06-.35.13-.37.25-.03.18.31.28.29.47-.01.11-.13.11-.37.32-.11.09-.28.25-.39.47-.12.27,0,.35-.12.51-.2.29-.78.24-.96.22-.37-.03-.38-.14-.62-.1-.33.05-.43.25-.66.2-.21-.05-.33-.26-.37-.34-.13-.23-.06-.38-.13-.57-.11-.29-.4-.35-.69-.52-.5-.3-.73-.78-1.15-1.64-.23-.48-.25-.66-.52-1.08-.25-.38-.31-.35-.47-.64-.09-.17-.43-.78-.29-1.43.06-.28.14-.26.25-.66.02-.07.14-.52.1-.93-.04-.41-.22-.67-.62-1.26-.41-.61-1.27-1.87-1.16-1.96.03-.03.14.09.24.05.1-.04.09-.2.12-.51.05-.55.11-.55.07-.74-.02-.09-.09-.37-.32-.52-.28-.18-.49.05-.74-.12-.22-.14-.13-.35-.44-.69-.15-.16-.25-.28-.4-.28-.25,0-.31.29-.67.37-.09.02-.04,0-.46,0-.33,0-.42.03-.62,0-.18-.02-.27-.04-.35-.09-.18-.11-.21-.26-.39-.62-.21-.42-.25-.35-.32-.56-.09-.29-.02-.44,0-.88.02-.48-.07-.45-.07-.93,0-.61.14-1.1.22-1.35.16-.54.23-.47.32-.88.1-.46.03-.66.2-1.05.03-.07.06-.11.32-.49.45-.64.67-.96.76-1.03.43-.35.68-.22.94-.59.17-.23.08-.3.29-.61.04-.05.1-.14.64-.62.38-.34.44-.37.52-.39.25-.04.32.13.66.13.12,0,.2-.02.61-.15.6-.2.58-.21.73-.25.08-.02,1.05-.28,1.26.07.09.15.03.39-.03.52-.1.19-.22.19-.27.35-.05.17.02.41.17.51.23.14.58-.12.67,0,.06.07-.06.17,0,.3.05.11.17.12.44.24.36.16.4.25.51.22.17-.05.1-.3.32-.52.16-.16.41-.28.64-.24.27.05.26.27.61.52.41.3.92.33,1.1.34.42.03.72-.07.79.07.05.09-.05.16-.02.4Z"/>
      <path class="cls-3" d="M235.15,241.81c-.05.06-.12.15-.17.27-.17.4-.03.78,0,.84.13.33.42.58.52.53.06-.03,0-.18.1-.26.08-.07.18-.01.24-.08.06-.07,0-.17,0-.32,0-.18.06-.36.14-.46.2-.25.6-.22.72-.21.45.03.79.32.77.36-.01.03-.18-.04-.52-.04-.19,0-.28,0-.35.05-.23.15-.25.67-.03.86.09.08.25.09.55.11.26.01.31-.02.5.02.24.05.24.13.38.13.24,0,.29-.21.55-.24.15-.01.36.04.42.17.06.12-.04.22-.25.63-.24.49-.18.51-.3.61-.15.13-.45.25-.72.31-.08.02-.16.03-.19.09-.08.14.1.39.14.44.18.25.34.25.54.47.11.13.13.21.24.45.34.72.51.67.68,1.15.14.41.04.51.23.82.11.18.17.19.42.46.36.39.54.58.61.79.16.48-.13.78.12,1.08.07.08.15.14.22.29.1.21.04.33.12.39.12.08.28-.15.65-.19.22-.02.26.05.46.02.07-.01.19-.04.43-.2.49-.32.47-.49.74-.56.25-.07.37.05.52-.07.14-.11.06-.24.19-.4.18-.21.41-.07.78-.27.12-.07.23-.17.43-.37.36-.36.28-.4.53-.6.18-.15.33-.22.48-.44.07-.1.11-.16.1-.23-.01-.18-.27-.23-.68-.5-.41-.27-.42-.41-.63-.41-.23,0-.27.17-.62.29-.38.13-.84.09-.91-.08-.05-.1.07-.18.03-.32-.05-.18-.27-.25-.45-.33-.48-.23-.91-.77-.81-1.06.07-.2.41-.35.67-.27.3.09.29.43.78.77.12.09.21.14.34.19.44.14.67-.15.98,0,.23.11.14.28.43.46.18.12.37.14.66.18.22.03.37.03.58.03.45,0,.68,0,.97-.08.32-.09.38-.17.52-.13.2.07.19.28.43.57.09.11.13.12.57.42.43.29.65.44.81.57.25.2.46.38.65.65.24.34.23.55.4,1.08.13.38.28.69.59,1.3.48.95.72,1.42.94,1.39.28-.04.39-.84.42-1.06.13-.91-.19-1.1,0-1.67.19-.58.54-.44.92-1.2.29-.58.32-1.11.57-1.13.15-.01.21.18.45.19.26,0,.32-.23.52-.24.33,0,.36.68.94,1.11.46.33.72.12,1.01.45.36.4.08.83.45,1.18.27.26.49.08.9.35.5.34.54.85.68.83.18-.03.39-.85.12-1.63-.32-.92-1.06-1.03-1.04-1.67.01-.31.21-.56.59-1.06.36-.47.56-.56.71-.75.85-1.11-1.05-3.97-1.31-4.36-.66-.98-1.29-1.62-1.9-2.24-.54-.54-1.43-1.43-2.8-2.34-1.11-.74-2.7-1.8-4.38-2.01-.58-.07-.95-.02-1.67-.23-.71-.21-1.13-.5-1.49-.29-.26.15-.19.39-.5.64-.31.25-.65.24-1.17.26-.65.03-1.3.06-1.9.23-1.03.3-1.39.88-1.78.67-.24-.13-.37-.5-.26-.67.16-.27.86-.08.88-.15.01-.07-.57-.39-1.34-.41-1.12-.03-2.33.61-2.78.96-.09.07-.27.23-.56.3-.27.07-.4.02-.59.04-.65.09-1.04,1.06-.99,1.1.04.03.35-.51.75-.47.04,0,.15.02.2.09.1.19-.31.56-.26.62.03.04.21-.13.53-.28.31-.14.39-.11.6-.24.17-.1.23-.2.37-.37,0,0,.31-.36.77-.67.51-.35,1.12-.49,1.16-.4.07.14-1.33.89-1.24,1.07.08.16,1.17-.28,1.23-.13.04.08-.25.38-.57.4-.15,0-.22-.05-.32.01-.16.09-.1.3-.24.37-.16.09-.33-.15-.53-.07-.16.07-.11.26-.3.42-.12.1-.2.08-.57.15-.6.12-.69.23-.86.14-.18-.09-.27-.32-.27-.49,0-.22.14-.36.11-.38-.04-.03-.22.13-.37.32-.16.21-.13.27-.24.36-.16.13-.3.07-.58.15-.14.04-.15.07-.54.29-.28.16-.56.32-.9.47-.28.13-.43.19-.58.22-.31.06-.55.01-.59.11-.02.05.04.09.08.2.06.19-.01.37-.09.54-.08.18-.15.36-.33.44-.06.03-.11.03-.35.02-.52-.04-.62-.1-.76-.04-.11.05-.1.1-.31.38-.25.34-.3.32-.55.65-.38.5-.34.66-.32.71.05.15.19.22.21.23.18.08.36,0,.57-.1.18-.08.3-.17.41-.25.14-.1.35-.26.54-.52.17-.22.14-.26.25-.33.23-.16.41-.02.59-.17.18-.15.08-.38.24-.47.14-.08.26.08.52.1.44.03.69-.4.83-.31.13.08-.13.41.03.75.14.31.48.27.61.6.1.26-.02.55,0,.55.03,0,.1-.58.28-.61.14-.02.26.31.31.29.03-.02,0-.21-.11-.39-.16-.24-.33-.23-.47-.39-.23-.28-.18-.81,0-.9.13-.06.42.1,1.09,1Z"/>
    </g>
    <g>
      <path class="cls-2" d="M245.18,282.6c.17-1.2.34-2.4.51-3.6-2.16-.18-4.32-.35-6.49-.53-.26,1.18-.53,2.36-.79,3.53,2.26.2,4.51.4,6.77.6Z"/>
      <path class="cls-2" d="M238.09,283.4c-5.16,22.85-10.32,45.7-15.48,68.55h15.97c2.13-22.64,4.26-45.29,6.39-67.93-2.29-.2-4.59-.41-6.88-.61Z"/>
    </g>
    <path class="cls-2" d="M243.66,276.71c-.26.01-.52.02-.77.02-12.75.09-23.2-10.22-23.29-22.97h0c-.09-12.49,9.8-22.77,22.2-23.27.26-.01.51-.02.78-.02,6.18-.04,12,2.32,16.4,6.66,4.4,4.34,6.84,10.13,6.89,16.31.09,12.49-9.8,22.77-22.2,23.27ZM221.45,253.74c.08,11.74,9.69,21.22,21.43,21.14.24,0,.48,0,.71-.02,11.41-.45,20.5-9.91,20.43-21.41-.04-5.68-2.29-11.01-6.34-15.01-4.05-3.99-9.41-6.17-15.09-6.13-11.72.09-21.22,9.69-21.14,21.43h0Z"/>
  </g>
  <path class="cls-3" d="M177.04,351.94v-105.44h-23.81v105.44h-17.25v-105.44h-24.05v105.44h-17.25v-120.02h17.25v8.99c2.18-6.32,8.02-8.99,16.52-8.99h4.13c8.75,0,13.12,4.37,15.31,8.99,2.43-6.32,6.8-8.99,15.31-8.99h13.85c9.48,0,17.25,7.77,17.25,17.25v102.77h-17.25Z"/>
  <path class="cls-3" d="M301.88,314.53h-16.41v20.17c0,9.12,7.21,16.64,16.19,17.2-.46-12.44.18-24.91.22-37.36Z"/>
  <path class="cls-3" d="M335.95,303.6l-33.53-38.39v-20.41h15.37v-14.33h-15.37c-9.48,0-17.25,7.77-17.25,17.25v15.31c0,4.37,1.46,8.99,3.4,11.42l33.28,38.39v24.78h-16.19c-.06,4.78-.03,9.56.15,14.33h16.04c9.72,0,17.25-7.77,17.25-17.25v-19.92c0-3.89-.48-8.02-3.16-11.18Z"/>
  <path class="cls-3" d="M322.55,230.49v28.41h16.87v-11.18c0-9.35-7.33-17.03-16.87-17.23Z"/>
  <g>
    <polygon class="cls-3" points="404.42 231.93 404.42 284.89 392.34 284.89 392.34 299.71 404.42 299.71 404.42 351.94 421.67 351.94 421.67 231.93 404.42 231.93"/>
    <path class="cls-3" d="M404.42,284.89h-25.75v-52.96h-17.25v120.02h17.25v-52.23h25.75v-14.82Z"/>
  </g>
  <g>
    <rect class="cls-3" x="443.98" y="231.93" width="16.73" height="120.02"/>
    <path class="cls-3" d="M486.01,231.93h-10.69c-2.58,0-4.71.34-6.52.99.06,4.53.19,9.06.3,13.59h16.43v105.44h17.74v-102.77c0-9.47-7.78-17.25-17.25-17.25Z"/>
  </g>
</svg>